<svg fill="none" xmlns="http://www.w3.org/2000/svg" viewBox="0 0 38 47">
    <path d="M6.69 8.44H27.3M6.7 15h20.6M6.7 21.56h20.6" stroke="#fff" stroke-width="1.5" stroke-linecap="round" stroke-linejoin="round"/>
    <path d="m8.72 34.42.14-1.47H8.8l-.53 1.34-2.55 4.43h-.35l-2.7-4.44-.5-1.33H2.1l.2 1.46V41H1.2v-9.8h.87l3.06 5.01.47 1.1h.02l.44-1.13 2.92-4.98h.91V41H8.72zm3.54-3.22h5.34v1.04h-4.17v3.2h3.82v1.04h-3.82v3.48h4.24V41h-5.4zm9.27 3.39-.75-1.42h-.06l.14 1.42V41h-1.09v-9.95h.62l4.69 6.53.72 1.35h.07l-.15-1.35V31.2h1.1v9.95h-.62zm13.29-3.39h1.12v6.54q0 .89-.24 1.52-.23.65-.66 1.07a3 3 0 0 1-1.02.6q-.6.2-1.33.2-1.74 0-2.62-.79-.88-.78-.88-2.38V31.2h1.16v6.22q0 .74.14 1.26.15.5.45.82.3.3.73.45.45.14 1.03.14 1.14 0 1.63-.62.48-.63.49-2.05z" fill="#fff"/>
</svg>